<svg width="292" height="91" viewBox="0 0 292 91" fill="none" xmlns="http://www.w3.org/2000/svg">
<g filter="url(#filter0_d)">
<rect x="16" y="14" width="260" height="59" rx="4" fill="#2A9D8F"/>
<path d="M85.8925 35.817L81.178 51H78.6265L75.3085 40.626C75.2175 40.374 75.1335 40.066 75.0565 39.702C75.0145 39.877 74.9725 40.0415 74.9305 40.1955C74.8885 40.3495 74.843 40.493 74.794 40.626L71.4445 51H68.8825L64.1785 35.817H66.541C66.786 35.817 66.989 35.8765 67.15 35.9955C67.318 36.1075 67.43 36.2615 67.486 36.4575L70.069 45.54C70.125 45.764 70.1775 46.009 70.2265 46.275C70.2825 46.534 70.3385 46.807 70.3945 47.094C70.4505 46.8 70.51 46.5235 70.573 46.2645C70.643 46.0055 70.7165 45.764 70.7935 45.54L73.7755 36.4575C73.8315 36.2965 73.94 36.1495 74.101 36.0165C74.269 35.8835 74.472 35.817 74.71 35.817H75.5395C75.7845 35.817 75.984 35.8765 76.138 35.9955C76.292 36.1145 76.4075 36.2685 76.4845 36.4575L79.456 45.54C79.603 45.974 79.736 46.4745 79.855 47.0415C79.946 46.4885 80.0475 45.988 80.1595 45.54L82.7425 36.4575C82.7845 36.2825 82.8895 36.132 83.0575 36.006C83.2325 35.88 83.439 35.817 83.677 35.817H85.8925ZM88.83 42.096C89.166 41.452 89.565 40.948 90.027 40.584C90.489 40.213 91.035 40.0275 91.665 40.0275C92.162 40.0275 92.561 40.136 92.862 40.353L92.694 42.2955C92.659 42.4215 92.6065 42.5125 92.5365 42.5685C92.4735 42.6175 92.386 42.642 92.274 42.642C92.169 42.642 92.0115 42.6245 91.8015 42.5895C91.5985 42.5545 91.399 42.537 91.203 42.537C90.916 42.537 90.6605 42.579 90.4365 42.663C90.2125 42.747 90.0095 42.8695 89.8275 43.0305C89.6525 43.1845 89.495 43.3735 89.355 43.5975C89.222 43.8215 89.096 44.077 88.977 44.364V51H86.3835V40.227H87.906C88.172 40.227 88.3575 40.276 88.4625 40.374C88.5675 40.465 88.6375 40.633 88.6725 40.878L88.83 42.096ZM96.9055 40.227V51H94.3015V40.227H96.9055ZM97.2625 37.0875C97.2625 37.3115 97.217 37.5215 97.126 37.7175C97.035 37.9135 96.9125 38.085 96.7585 38.232C96.6115 38.379 96.4365 38.498 96.2335 38.589C96.0305 38.673 95.8135 38.715 95.5825 38.715C95.3585 38.715 95.145 38.673 94.942 38.589C94.746 38.498 94.5745 38.379 94.4275 38.232C94.2805 38.085 94.1615 37.9135 94.0705 37.7175C93.9865 37.5215 93.9445 37.3115 93.9445 37.0875C93.9445 36.8565 93.9865 36.6395 94.0705 36.4365C94.1615 36.2335 94.2805 36.0585 94.4275 35.9115C94.5745 35.7645 94.746 35.649 94.942 35.565C95.145 35.474 95.3585 35.4285 95.5825 35.4285C95.8135 35.4285 96.0305 35.474 96.2335 35.565C96.4365 35.649 96.6115 35.7645 96.7585 35.9115C96.9125 36.0585 97.035 36.2335 97.126 36.4365C97.217 36.6395 97.2625 36.8565 97.2625 37.0875ZM103.141 51.168C102.203 51.168 101.482 50.9055 100.978 50.3805C100.481 49.8485 100.232 49.117 100.232 48.186V42.1695H99.1296C98.9896 42.1695 98.8706 42.124 98.7726 42.033C98.6746 41.942 98.6256 41.8055 98.6256 41.6235V40.5945L100.358 40.311L100.904 37.371C100.939 37.231 101.006 37.1225 101.104 37.0455C101.202 36.9685 101.328 36.93 101.482 36.93H102.826V40.3215H105.703V42.1695H102.826V48.0075C102.826 48.3435 102.906 48.606 103.067 48.795C103.235 48.984 103.463 49.0785 103.75 49.0785C103.911 49.0785 104.044 49.061 104.149 49.026C104.261 48.984 104.355 48.942 104.432 48.9C104.516 48.858 104.59 48.8195 104.653 48.7845C104.716 48.7425 104.779 48.7215 104.842 48.7215C104.919 48.7215 104.982 48.7425 105.031 48.7845C105.08 48.8195 105.132 48.8755 105.188 48.9525L105.965 50.2125C105.587 50.5275 105.153 50.7655 104.663 50.9265C104.173 51.0875 103.666 51.168 103.141 51.168ZM114.222 44.3745C114.222 44.0385 114.173 43.7235 114.075 43.4295C113.984 43.1285 113.844 42.866 113.655 42.642C113.466 42.418 113.224 42.243 112.93 42.117C112.643 41.984 112.307 41.9175 111.922 41.9175C111.173 41.9175 110.582 42.131 110.148 42.558C109.721 42.985 109.448 43.5905 109.329 44.3745H114.222ZM109.276 45.939C109.318 46.492 109.416 46.9715 109.57 47.3775C109.724 47.7765 109.927 48.109 110.179 48.375C110.431 48.634 110.729 48.83 111.072 48.963C111.422 49.089 111.807 49.152 112.227 49.152C112.647 49.152 113.007 49.103 113.308 49.005C113.616 48.907 113.882 48.7985 114.106 48.6795C114.337 48.5605 114.537 48.452 114.705 48.354C114.88 48.256 115.048 48.207 115.209 48.207C115.426 48.207 115.587 48.2875 115.692 48.4485L116.437 49.3935C116.15 49.7295 115.828 50.013 115.471 50.244C115.114 50.468 114.74 50.65 114.348 50.79C113.963 50.923 113.567 51.0175 113.161 51.0735C112.762 51.1295 112.374 51.1575 111.996 51.1575C111.247 51.1575 110.55 51.035 109.906 50.79C109.262 50.538 108.702 50.1705 108.226 49.6875C107.75 49.1975 107.376 48.5955 107.103 47.8815C106.83 47.1605 106.693 46.3275 106.693 45.3825C106.693 44.6475 106.812 43.958 107.05 43.314C107.288 42.663 107.628 42.0995 108.069 41.6235C108.517 41.1405 109.059 40.759 109.696 40.479C110.34 40.199 111.065 40.059 111.87 40.059C112.549 40.059 113.175 40.1675 113.749 40.3845C114.323 40.6015 114.817 40.92 115.23 41.34C115.643 41.753 115.965 42.264 116.196 42.873C116.434 43.475 116.552 44.1645 116.552 44.9415C116.552 45.3335 116.511 45.5995 116.427 45.7395C116.343 45.8725 116.182 45.939 115.944 45.939H109.276ZM130.367 42.978C130.073 42.621 129.751 42.369 129.401 42.222C129.058 42.075 128.687 42.0015 128.288 42.0015C127.896 42.0015 127.543 42.075 127.228 42.222C126.913 42.369 126.643 42.593 126.419 42.894C126.195 43.188 126.024 43.566 125.905 44.028C125.786 44.483 125.726 45.022 125.726 45.645C125.726 46.275 125.775 46.8105 125.873 47.2515C125.978 47.6855 126.125 48.0425 126.314 48.3225C126.503 48.5955 126.734 48.795 127.007 48.921C127.28 49.04 127.585 49.0995 127.921 49.0995C128.46 49.0995 128.918 48.9875 129.296 48.7635C129.674 48.5395 130.031 48.221 130.367 47.808V42.978ZM132.961 35.397V51H131.375C131.032 51 130.815 50.8425 130.724 50.5275L130.504 49.488C130.07 49.985 129.569 50.3875 129.002 50.6955C128.442 51.0035 127.788 51.1575 127.039 51.1575C126.451 51.1575 125.912 51.035 125.422 50.79C124.932 50.545 124.508 50.1915 124.151 49.7295C123.801 49.2605 123.528 48.683 123.332 47.997C123.143 47.311 123.049 46.527 123.049 45.645C123.049 44.847 123.157 44.105 123.374 43.419C123.591 42.733 123.903 42.138 124.309 41.634C124.715 41.13 125.201 40.738 125.768 40.458C126.335 40.171 126.972 40.0275 127.679 40.0275C128.281 40.0275 128.796 40.122 129.223 40.311C129.65 40.5 130.031 40.7555 130.367 41.0775V35.397H132.961ZM141.211 46.401C140.462 46.436 139.832 46.5025 139.321 46.6005C138.81 46.6915 138.401 46.8105 138.093 46.9575C137.785 47.1045 137.564 47.276 137.431 47.472C137.298 47.668 137.232 47.8815 137.232 48.1125C137.232 48.5675 137.365 48.893 137.631 49.089C137.904 49.285 138.257 49.383 138.691 49.383C139.223 49.383 139.682 49.2885 140.067 49.0995C140.459 48.9035 140.84 48.6095 141.211 48.2175V46.401ZM135.268 41.7285C136.507 40.5945 137.998 40.0275 139.741 40.0275C140.371 40.0275 140.935 40.1325 141.432 40.3425C141.929 40.5455 142.349 40.8325 142.692 41.2035C143.035 41.5675 143.294 42.005 143.469 42.516C143.651 43.027 143.742 43.587 143.742 44.196V51H142.566C142.321 51 142.132 50.965 141.999 50.895C141.866 50.818 141.761 50.6675 141.684 50.4435L141.453 49.6665C141.18 49.9115 140.914 50.1285 140.655 50.3175C140.396 50.4995 140.126 50.6535 139.846 50.7795C139.566 50.9055 139.265 51 138.943 51.063C138.628 51.133 138.278 51.168 137.893 51.168C137.438 51.168 137.018 51.1085 136.633 50.9895C136.248 50.8635 135.916 50.678 135.636 50.433C135.356 50.188 135.139 49.8835 134.985 49.5195C134.831 49.1555 134.754 48.732 134.754 48.249C134.754 47.976 134.799 47.7065 134.89 47.4405C134.981 47.1675 135.128 46.9085 135.331 46.6635C135.541 46.4185 135.811 46.1875 136.14 45.9705C136.469 45.7535 136.871 45.5645 137.347 45.4035C137.83 45.2425 138.39 45.113 139.027 45.015C139.664 44.91 140.392 44.847 141.211 44.826V44.196C141.211 43.475 141.057 42.943 140.749 42.6C140.441 42.25 139.997 42.075 139.416 42.075C138.996 42.075 138.646 42.124 138.366 42.222C138.093 42.32 137.851 42.432 137.641 42.558C137.431 42.677 137.239 42.7855 137.064 42.8835C136.896 42.9815 136.707 43.0305 136.497 43.0305C136.315 43.0305 136.161 42.985 136.035 42.894C135.909 42.796 135.807 42.684 135.73 42.558L135.268 41.7285ZM148.872 40.227V51H146.268V40.227H148.872ZM149.229 37.0875C149.229 37.3115 149.184 37.5215 149.093 37.7175C149.002 37.9135 148.879 38.085 148.725 38.232C148.578 38.379 148.403 38.498 148.2 38.589C147.997 38.673 147.78 38.715 147.549 38.715C147.325 38.715 147.112 38.673 146.909 38.589C146.713 38.498 146.541 38.379 146.394 38.232C146.247 38.085 146.128 37.9135 146.037 37.7175C145.953 37.5215 145.911 37.3115 145.911 37.0875C145.911 36.8565 145.953 36.6395 146.037 36.4365C146.128 36.2335 146.247 36.0585 146.394 35.9115C146.541 35.7645 146.713 35.649 146.909 35.565C147.112 35.474 147.325 35.4285 147.549 35.4285C147.78 35.4285 147.997 35.474 148.2 35.565C148.403 35.649 148.578 35.7645 148.725 35.9115C148.879 36.0585 149.002 36.2335 149.093 36.4365C149.184 36.6395 149.229 36.8565 149.229 37.0875ZM154.141 35.397V51H151.548V35.397H154.141ZM166.511 40.227L160.642 53.961C160.565 54.143 160.463 54.2795 160.337 54.3705C160.218 54.4685 160.033 54.5175 159.781 54.5175H157.849L159.865 50.1915L155.507 40.227H157.786C157.989 40.227 158.146 40.276 158.258 40.374C158.377 40.472 158.465 40.584 158.521 40.71L160.81 46.296C160.887 46.485 160.95 46.674 160.999 46.863C161.055 47.052 161.107 47.2445 161.156 47.4405C161.219 47.2445 161.282 47.052 161.345 46.863C161.408 46.667 161.478 46.4745 161.555 46.2855L163.718 40.71C163.774 40.57 163.865 40.4545 163.991 40.3635C164.124 40.2725 164.271 40.227 164.432 40.227H166.511ZM179.313 44.3745C179.313 44.0385 179.264 43.7235 179.166 43.4295C179.075 43.1285 178.935 42.866 178.746 42.642C178.557 42.418 178.316 42.243 178.022 42.117C177.735 41.984 177.399 41.9175 177.014 41.9175C176.265 41.9175 175.673 42.131 175.239 42.558C174.812 42.985 174.539 43.5905 174.42 44.3745H179.313ZM174.368 45.939C174.41 46.492 174.508 46.9715 174.662 47.3775C174.816 47.7765 175.019 48.109 175.271 48.375C175.523 48.634 175.82 48.83 176.163 48.963C176.513 49.089 176.898 49.152 177.318 49.152C177.738 49.152 178.099 49.103 178.4 49.005C178.708 48.907 178.974 48.7985 179.198 48.6795C179.429 48.5605 179.628 48.452 179.796 48.354C179.971 48.256 180.139 48.207 180.3 48.207C180.517 48.207 180.678 48.2875 180.783 48.4485L181.529 49.3935C181.242 49.7295 180.92 50.013 180.563 50.244C180.206 50.468 179.831 50.65 179.439 50.79C179.054 50.923 178.659 51.0175 178.253 51.0735C177.854 51.1295 177.465 51.1575 177.087 51.1575C176.338 51.1575 175.642 51.035 174.998 50.79C174.354 50.538 173.794 50.1705 173.318 49.6875C172.842 49.1975 172.467 48.5955 172.194 47.8815C171.921 47.1605 171.785 46.3275 171.785 45.3825C171.785 44.6475 171.904 43.958 172.142 43.314C172.38 42.663 172.719 42.0995 173.16 41.6235C173.608 41.1405 174.151 40.759 174.788 40.479C175.432 40.199 176.156 40.059 176.961 40.059C177.64 40.059 178.267 40.1675 178.841 40.3845C179.415 40.6015 179.908 40.92 180.321 41.34C180.734 41.753 181.056 42.264 181.287 42.873C181.525 43.475 181.644 44.1645 181.644 44.9415C181.644 45.3335 181.602 45.5995 181.518 45.7395C181.434 45.8725 181.273 45.939 181.035 45.939H174.368ZM186.016 41.55C186.233 41.333 186.461 41.1335 186.699 40.9515C186.944 40.7625 187.199 40.605 187.465 40.479C187.738 40.346 188.029 40.2445 188.337 40.1745C188.645 40.0975 188.981 40.059 189.345 40.059C189.933 40.059 190.454 40.1605 190.909 40.3635C191.364 40.5595 191.742 40.8395 192.043 41.2035C192.351 41.5605 192.582 41.991 192.736 42.495C192.897 42.992 192.978 43.5415 192.978 44.1435V51H190.384V44.1435C190.384 43.4855 190.234 42.978 189.933 42.621C189.632 42.257 189.173 42.075 188.557 42.075C188.109 42.075 187.689 42.1765 187.297 42.3795C186.905 42.5825 186.534 42.859 186.184 43.209V51H183.591V40.227H185.176C185.512 40.227 185.733 40.3845 185.838 40.6995L186.016 41.55ZM198.892 51.168C197.954 51.168 197.233 50.9055 196.729 50.3805C196.232 49.8485 195.983 49.117 195.983 48.186V42.1695H194.881C194.741 42.1695 194.622 42.124 194.524 42.033C194.426 41.942 194.377 41.8055 194.377 41.6235V40.5945L196.109 40.311L196.655 37.371C196.69 37.231 196.757 37.1225 196.855 37.0455C196.953 36.9685 197.079 36.93 197.233 36.93H198.577V40.3215H201.454V42.1695H198.577V48.0075C198.577 48.3435 198.657 48.606 198.818 48.795C198.986 48.984 199.214 49.0785 199.501 49.0785C199.662 49.0785 199.795 49.061 199.9 49.026C200.012 48.984 200.106 48.942 200.183 48.9C200.267 48.858 200.341 48.8195 200.404 48.7845C200.467 48.7425 200.53 48.7215 200.593 48.7215C200.67 48.7215 200.733 48.7425 200.782 48.7845C200.831 48.8195 200.883 48.8755 200.939 48.9525L201.716 50.2125C201.338 50.5275 200.904 50.7655 200.414 50.9265C199.924 51.0875 199.417 51.168 198.892 51.168ZM205.561 42.096C205.897 41.452 206.296 40.948 206.758 40.584C207.22 40.213 207.766 40.0275 208.396 40.0275C208.893 40.0275 209.292 40.136 209.593 40.353L209.425 42.2955C209.39 42.4215 209.337 42.5125 209.267 42.5685C209.204 42.6175 209.117 42.642 209.005 42.642C208.9 42.642 208.742 42.6245 208.532 42.5895C208.329 42.5545 208.13 42.537 207.934 42.537C207.647 42.537 207.391 42.579 207.167 42.663C206.943 42.747 206.74 42.8695 206.558 43.0305C206.383 43.1845 206.226 43.3735 206.086 43.5975C205.953 43.8215 205.827 44.077 205.708 44.364V51H203.114V40.227H204.637C204.903 40.227 205.088 40.276 205.193 40.374C205.298 40.465 205.368 40.633 205.403 40.878L205.561 42.096ZM220.734 40.227L214.864 53.961C214.787 54.143 214.686 54.2795 214.56 54.3705C214.441 54.4685 214.255 54.5175 214.003 54.5175H212.071L214.087 50.1915L209.73 40.227H212.008C212.211 40.227 212.369 40.276 212.481 40.374C212.6 40.472 212.687 40.584 212.743 40.71L215.032 46.296C215.109 46.485 215.172 46.674 215.221 46.863C215.277 47.052 215.33 47.2445 215.379 47.4405C215.442 47.2445 215.505 47.052 215.568 46.863C215.631 46.667 215.701 46.4745 215.778 46.2855L217.941 40.71C217.997 40.57 218.088 40.4545 218.214 40.3635C218.347 40.2725 218.494 40.227 218.655 40.227H220.734Z" fill="white"/>
</g>
<defs>
<filter id="filter0_d" x="0" y="0" width="292" height="91" filterUnits="userSpaceOnUse" color-interpolation-filters="sRGB">
<feFlood flood-opacity="0" result="BackgroundImageFix"/>
<feColorMatrix in="SourceAlpha" type="matrix" values="0 0 0 0 0 0 0 0 0 0 0 0 0 0 0 0 0 0 127 0"/>
<feOffset dy="2"/>
<feGaussianBlur stdDeviation="8"/>
<feColorMatrix type="matrix" values="0 0 0 0 0 0 0 0 0 0 0 0 0 0 0 0 0 0 0.11 0"/>
<feBlend mode="normal" in2="BackgroundImageFix" result="effect1_dropShadow"/>
<feBlend mode="normal" in="SourceGraphic" in2="effect1_dropShadow" result="shape"/>
</filter>
</defs>
</svg>
