<svg width="282" height="286" viewBox="0 0 282 286" fill="none" xmlns="http://www.w3.org/2000/svg">
<path d="M266.285 188.506C270.412 190.005 272.58 194.561 270.892 198.615C258.171 229.163 235.329 254.364 206.19 269.772C174.729 286.407 138.241 290.403 104.003 280.962C69.7659 271.521 40.2968 249.338 21.475 218.838C2.65317 188.337 -4.13774 151.762 2.45701 116.409C9.05176 81.0559 28.5474 49.5235 57.0545 28.1024C85.5617 6.68126 120.985 -3.05371 156.257 0.839526C191.529 4.73276 224.057 21.968 247.352 49.1069C268.915 74.2273 281.099 106.124 281.952 139.251C282.066 143.67 278.353 147.149 273.934 147.015L241.898 146.044C237.484 145.91 234.048 142.22 233.809 137.811C232.679 116.949 224.734 96.9722 211.109 81.0993C195.753 63.2089 174.31 51.8472 151.058 49.2807C127.806 46.7142 104.454 53.1317 85.6618 67.2528C66.8694 81.3739 54.0176 102.161 49.6702 125.466C45.3228 148.772 49.7995 172.882 62.2072 192.989C74.6148 213.095 94.0413 227.718 116.611 233.942C139.181 240.165 163.235 237.531 183.974 226.565C202.347 216.85 216.922 201.229 225.494 182.266C227.326 178.215 231.91 176.016 236.089 177.535L266.285 188.506Z" fill="#F2F2F2"/>
<path d="M266.285 188.506C270.412 190.005 272.58 194.561 270.892 198.614C260.194 224.303 242.295 246.317 219.336 261.874C194.202 278.904 164.337 287.293 134.144 285.803C103.951 284.312 75.0299 273.021 51.6461 253.595C28.2624 234.169 11.654 207.636 4.27061 177.91C-3.11275 148.185 -0.88017 116.839 10.639 88.4981C22.1583 60.1568 42.3543 36.3199 68.2482 20.5032C94.1422 4.68654 124.363 -2.27255 154.454 0.652389C181.936 3.32381 207.981 14.1109 229.401 31.5918C232.79 34.358 233.037 39.3759 230.132 42.6467L208.598 66.8876C205.635 70.2233 200.535 70.4596 196.991 67.7479C183.322 57.2865 167.02 50.8245 149.869 49.1573C130.033 47.2292 110.111 51.8167 93.0408 62.2433C75.9711 72.67 62.6576 88.3836 55.0639 107.067C47.4703 125.75 45.9985 146.413 50.8657 166.009C55.733 185.604 66.6815 203.095 82.0965 215.901C97.5114 228.707 116.577 236.15 136.48 237.133C156.384 238.116 176.072 232.586 192.641 221.359C206.992 211.634 218.345 198.082 225.494 182.266C227.326 178.215 231.91 176.016 236.089 177.535L266.285 188.506Z" fill="url(#paint0_angular)"/>
<defs>
<radialGradient id="paint0_angular" cx="0" cy="0" r="1" gradientUnits="userSpaceOnUse" gradientTransform="translate(141 142.986) rotate(19.0236) scale(149.146 146.512)">
<stop stop-color="#2A9D8F"/>
<stop offset="1" stop-color="#B7FFD5"/>
</radialGradient>
</defs>
</svg>
