<svg width="149" height="151" viewBox="0 0 149 151" fill="none" xmlns="http://www.w3.org/2000/svg">
<path d="M137.178 98.2581C141.306 99.757 143.492 104.328 141.606 108.294C134.664 122.883 123.238 134.893 108.944 142.446C92.3214 151.23 73.042 153.34 54.952 148.355C36.8621 143.37 21.2916 131.656 11.3467 115.552C1.40185 99.4467 -2.18625 80.1342 1.29821 61.4668C4.78267 42.7995 15.0835 26.1496 30.1458 14.8387C45.2081 3.52787 63.9246 -1.61243 82.5613 0.44329C101.198 2.49901 118.385 11.5996 130.693 25.9296C141.265 38.2371 147.57 53.625 148.784 69.7542C149.116 74.1625 145.383 77.6469 140.964 77.513L131.58 77.2288C127.166 77.0951 123.761 73.3902 123.193 69.0111C121.941 59.369 117.92 50.2457 111.544 42.8224C103.43 33.3758 92.0997 27.3766 79.8141 26.0214C67.5285 24.6662 55.1903 28.0548 45.261 35.5111C35.3317 42.9674 28.5412 53.9433 26.2442 66.2491C23.9472 78.5549 26.3125 91.286 32.8683 101.903C39.4241 112.519 49.6885 120.241 61.6137 123.527C73.5388 126.813 86.2482 125.422 97.2062 119.632C105.79 115.096 112.805 108.122 117.445 99.6454C119.58 95.7466 124.139 93.5238 128.317 95.0408L137.178 98.2581Z" fill="#F2F2F2"/>
<path d="M137.178 98.2581C141.306 99.757 143.493 104.328 141.606 108.293C135.849 120.391 126.988 130.761 115.891 138.276C102.611 147.268 86.8303 151.698 70.8774 150.911C54.9245 150.124 39.6435 144.162 27.2882 133.904C14.933 123.647 6.1576 109.637 2.25646 93.941C-1.64468 78.245 -0.465055 61.694 5.62134 46.7291C11.7077 31.7642 22.3787 19.1778 36.0602 10.8262C49.7418 2.47461 65.7096 -1.19996 81.6086 0.344477C94.8918 1.63483 107.539 6.51111 118.262 14.3986C121.788 16.9921 122.026 22.0332 119.118 25.3045L112.756 32.4615C109.793 35.7948 104.704 35.9968 100.961 33.5712C94.4332 29.3401 86.9754 26.7129 79.1861 25.9562C68.7052 24.9381 58.179 27.3605 49.1599 32.866C40.1408 38.3715 33.1063 46.6687 29.0941 56.5338C25.0818 66.3989 24.3042 77.3096 26.8759 87.6566C29.4476 98.0036 35.2324 107.239 43.3772 114.001C51.522 120.763 61.5955 124.693 72.1119 125.212C82.6284 125.731 93.0309 122.811 101.785 116.883C108.316 112.46 113.672 106.539 117.445 99.6453C119.58 95.7466 124.139 93.5238 128.317 95.0408L137.178 98.2581Z" fill="url(#paint0_angular)"/>
<defs>
<radialGradient id="paint0_angular" cx="0" cy="0" r="1" gradientUnits="userSpaceOnUse" gradientTransform="translate(74.5 75.5) rotate(20.2474) scale(73.5965 72.7769)">
<stop stop-color="#F4A261"/>
<stop offset="1" stop-color="white"/>
</radialGradient>
</defs>
</svg>
