<svg width="284" height="288" viewBox="0 0 284 288" fill="none" xmlns="http://www.w3.org/2000/svg">
<path d="M223.497 173.96C227.625 175.478 229.784 180.062 227.957 184.062C219.179 203.276 204.298 219.082 185.567 228.889C164.495 239.922 140.088 242.557 117.183 236.273C94.2778 229.988 74.5458 215.242 61.8966 194.957C49.2474 174.672 44.6041 150.328 48.8868 126.748C53.1695 103.168 66.0656 82.0737 85.0199 67.6442C103.974 53.2148 127.603 46.5033 151.226 48.8397C174.848 51.176 196.739 62.3898 212.562 80.2588C226.618 96.1321 234.974 116.228 236.435 137.322C236.741 141.73 233.075 145.269 228.656 145.208L212.397 144.981C207.98 144.92 204.501 141.276 204.007 136.887C202.555 123.977 197.177 111.763 188.516 101.981C178.085 90.2014 163.654 82.8091 148.082 81.2689C132.509 79.7288 116.933 84.1531 104.438 93.6652C91.9427 103.177 83.4414 117.083 80.6181 132.627C77.7949 148.171 80.8558 164.22 89.1944 177.592C97.5329 190.964 110.541 200.685 125.64 204.828C140.74 208.971 156.829 207.233 170.72 199.96C182.235 193.931 191.544 184.463 197.439 172.94C199.461 168.989 204.033 166.805 208.199 168.337L223.497 173.96Z" fill="#F2F2F2"/>
<path d="M223.497 173.96C227.625 175.478 229.784 180.061 227.957 184.062C219.665 202.212 205.914 217.348 188.569 227.247C168.929 238.456 145.971 242.212 123.831 237.839C101.692 233.466 81.8261 221.252 67.8128 203.396C55.4467 187.639 48.3556 168.403 47.4355 148.451C47.2318 144.035 50.9812 140.582 55.3987 140.748L71.6485 141.358C76.0614 141.524 79.4529 145.246 79.8444 149.645C80.9283 161.823 85.504 173.483 93.0945 183.155C102.332 194.926 115.428 202.978 130.023 205.86C144.617 208.743 159.752 206.267 172.699 198.878C183.317 192.818 191.892 183.781 197.439 172.94C199.461 168.989 204.033 166.805 208.199 168.337L223.497 173.96Z" fill="url(#paint0_angular)"/>
<path d="M268.226 189.862C272.353 191.361 274.521 195.917 272.835 199.971C260.047 230.712 237.085 256.082 207.785 271.615C176.165 288.377 139.481 292.454 105.031 283.034C70.5808 273.614 40.8906 251.388 21.8669 220.777C2.84321 190.166 -4.11949 153.414 2.36404 117.833C8.84757 82.253 28.3021 50.4517 56.8571 28.7566C85.4121 7.06145 120.975 -2.93735 156.469 0.749497C191.964 4.43635 224.789 21.5386 248.414 48.6537C270.292 73.7639 282.795 105.757 283.917 139.079C284.066 143.497 280.384 147.006 275.965 146.91L243.581 146.207C239.165 146.111 235.698 142.449 235.424 138.041C234.123 117.056 225.977 97.016 212.15 81.1462C196.576 63.2714 174.937 51.9973 151.538 49.5669C128.14 47.1365 104.696 53.7279 85.8724 68.0297C67.0485 82.3315 54.2237 103.295 49.9497 126.751C45.6756 150.206 50.2656 174.433 62.8063 194.612C75.347 214.792 94.9193 229.444 117.629 235.654C140.339 241.863 164.522 239.176 185.367 228.126C203.846 218.329 218.502 202.597 227.117 183.507C228.946 179.454 233.531 177.256 237.71 178.774L268.226 189.862Z" fill="#F2F2F2"/>
<path d="M268.226 189.862C272.353 191.361 274.521 195.917 272.835 199.971C262.064 225.864 244.028 248.054 220.892 263.731C195.58 280.883 165.502 289.331 135.095 287.83C104.688 286.329 75.562 274.957 52.0124 255.394C28.4628 235.83 11.7366 209.109 4.3009 179.172C-3.13482 149.236 -0.886413 117.668 10.7145 89.1258C22.3154 60.5835 42.6546 36.5775 68.7322 20.6486C94.8099 4.71978 125.245 -2.28867 155.549 0.657016C183.245 3.34918 209.491 14.2256 231.071 31.8512C234.459 34.6187 234.706 39.6366 231.801 42.9073L210.04 67.4049C207.076 70.7407 201.976 70.9772 198.434 68.2634C184.658 57.7071 168.224 51.1868 150.932 49.506C130.955 47.5641 110.891 52.1842 93.7007 62.6848C76.5099 73.1853 63.102 89.0105 55.4544 107.826C47.8069 126.642 46.3247 147.451 51.2265 167.186C56.1283 186.921 67.1544 204.536 82.6787 217.432C98.203 230.329 117.404 237.825 137.448 238.815C157.493 239.804 177.321 234.235 194.007 222.929C208.476 213.124 219.918 199.457 227.117 183.506C228.946 179.454 233.531 177.256 237.71 178.774L268.226 189.862Z" fill="url(#paint1_angular)"/>
<defs>
<radialGradient id="paint0_angular" cx="0" cy="0" r="1" gradientUnits="userSpaceOnUse" gradientTransform="translate(142 144.001) rotate(20.1851) scale(93.4812 92.2043)">
<stop stop-color="#F4A261"/>
<stop offset="1" stop-color="white"/>
</radialGradient>
<radialGradient id="paint1_angular" cx="0" cy="0" r="1" gradientUnits="userSpaceOnUse" gradientTransform="translate(142 144) rotate(19.0236) scale(150.203 147.551)">
<stop stop-color="#2A9D8F"/>
<stop offset="1" stop-color="#B7FFD5"/>
</radialGradient>
</defs>
</svg>
