<svg width="633" height="400" viewBox="0 0 633 400" fill="none" xmlns="http://www.w3.org/2000/svg">
<path d="M13.301 392.674L15.3928 397.894L17.4845 392.674H18.5788V399.072H17.735V396.58L17.8141 393.891L15.7136 399.072H15.0676L12.9714 393.904L13.0549 396.58V399.072H12.2111V392.674H13.301ZM19.7258 396.651C19.7258 396.185 19.8166 395.766 19.9982 395.394C20.1828 395.022 20.4377 394.735 20.7629 394.532C21.091 394.33 21.4645 394.229 21.8835 394.229C22.5309 394.229 23.0539 394.453 23.4523 394.902C23.8537 395.35 24.0544 395.946 24.0544 396.69V396.747C24.0544 397.21 23.965 397.626 23.7863 397.995C23.6105 398.362 23.3571 398.647 23.0261 398.852C22.6979 399.057 22.32 399.16 21.8923 399.16C21.2477 399.16 20.7248 398.936 20.3234 398.487C19.925 398.039 19.7258 397.446 19.7258 396.708V396.651ZM20.5431 396.747C20.5431 397.275 20.6647 397.698 20.9079 398.017C21.154 398.337 21.4821 398.496 21.8923 398.496C22.3053 398.496 22.6335 398.335 22.8766 398.013C23.1198 397.688 23.2414 397.234 23.2414 396.651C23.2414 396.129 23.1169 395.707 22.8678 395.385C22.6218 395.06 22.2936 394.897 21.8835 394.897C21.4821 394.897 21.1584 395.057 20.9123 395.376C20.6662 395.695 20.5431 396.153 20.5431 396.747ZM25.8429 394.317L25.8693 394.915C26.2326 394.458 26.7072 394.229 27.2931 394.229C28.298 394.229 28.8049 394.796 28.8136 395.93V399.072H28.0007V395.925C27.9977 395.583 27.9186 395.329 27.7634 395.165C27.611 395.001 27.3722 394.919 27.047 394.919C26.7834 394.919 26.5519 394.989 26.3527 395.13C26.1535 395.271 25.9982 395.455 25.8869 395.684V399.072H25.0739V394.317H25.8429Z" fill="#646464"/>
<path d="M118.644 393.368H116.587V399.072H115.748V393.368H113.695V392.674H118.644V393.368ZM121.979 398.602C121.663 398.974 121.198 399.16 120.586 399.16C120.079 399.16 119.693 399.013 119.426 398.72C119.162 398.424 119.029 397.988 119.026 397.411V394.317H119.839V397.389C119.839 398.11 120.132 398.47 120.718 398.47C121.339 398.47 121.752 398.238 121.957 397.776V394.317H122.77V399.072H121.997L121.979 398.602ZM125.983 399.16C125.338 399.16 124.814 398.949 124.409 398.527C124.005 398.102 123.803 397.535 123.803 396.826V396.677C123.803 396.205 123.892 395.785 124.071 395.416C124.253 395.044 124.505 394.754 124.827 394.546C125.152 394.335 125.504 394.229 125.882 394.229C126.5 394.229 126.98 394.433 127.323 394.84C127.666 395.247 127.837 395.83 127.837 396.589V396.927H124.616C124.628 397.396 124.764 397.776 125.025 398.066C125.288 398.353 125.622 398.496 126.027 398.496C126.314 398.496 126.557 398.438 126.756 398.32C126.955 398.203 127.13 398.048 127.279 397.855L127.776 398.241C127.377 398.854 126.779 399.16 125.983 399.16ZM125.882 394.897C125.553 394.897 125.278 395.017 125.055 395.258C124.833 395.495 124.695 395.829 124.642 396.259H127.024V396.198C127.001 395.785 126.889 395.466 126.69 395.24C126.491 395.011 126.221 394.897 125.882 394.897Z" fill="#646464"/>
<path d="M214.472 397.055L214.595 397.899L214.776 397.138L216.041 392.674H216.753L217.988 397.138L218.164 397.912L218.3 397.05L219.293 392.674H220.141L218.59 399.072H217.821L216.503 394.409L216.402 393.922L216.3 394.409L214.934 399.072H214.165L212.618 392.674H213.462L214.472 397.055ZM222.787 399.16C222.142 399.16 221.618 398.949 221.214 398.527C220.809 398.102 220.607 397.535 220.607 396.826V396.677C220.607 396.205 220.696 395.785 220.875 395.416C221.057 395.044 221.309 394.754 221.631 394.546C221.956 394.335 222.308 394.229 222.686 394.229C223.304 394.229 223.784 394.433 224.127 394.84C224.47 395.247 224.641 395.83 224.641 396.589V396.927H221.42C221.432 397.396 221.568 397.776 221.829 398.066C222.092 398.353 222.426 398.496 222.831 398.496C223.118 398.496 223.361 398.438 223.56 398.32C223.759 398.203 223.934 398.048 224.083 397.855L224.58 398.241C224.181 398.854 223.584 399.16 222.787 399.16ZM222.686 394.897C222.358 394.897 222.082 395.017 221.86 395.258C221.637 395.495 221.499 395.829 221.446 396.259H223.828V396.198C223.805 395.785 223.694 395.466 223.494 395.24C223.295 395.011 223.026 394.897 222.686 394.897ZM225.388 396.655C225.388 395.925 225.561 395.34 225.907 394.897C226.253 394.452 226.705 394.229 227.265 394.229C227.821 394.229 228.262 394.42 228.588 394.8V392.322H229.401V399.072H228.653L228.614 398.562C228.289 398.961 227.836 399.16 227.256 399.16C226.705 399.16 226.256 398.934 225.907 398.483C225.561 398.032 225.388 397.443 225.388 396.716V396.655ZM226.201 396.747C226.201 397.286 226.313 397.708 226.535 398.013C226.758 398.318 227.066 398.47 227.458 398.47C227.974 398.47 228.35 398.238 228.588 397.776V395.591C228.344 395.143 227.971 394.919 227.467 394.919C227.069 394.919 226.758 395.073 226.535 395.381C226.313 395.688 226.201 396.144 226.201 396.747Z" fill="#646464"/>
<path d="M317.992 393.296H315.936V399H315.096V393.296H313.044V392.602H317.992V393.296ZM319.627 394.821C319.987 394.378 320.456 394.157 321.033 394.157C322.038 394.157 322.545 394.724 322.554 395.858V399H321.741V395.854C321.738 395.511 321.659 395.257 321.503 395.093C321.351 394.929 321.112 394.847 320.787 394.847C320.523 394.847 320.292 394.917 320.093 395.058C319.894 395.199 319.738 395.383 319.627 395.612V399H318.814V392.25H319.627V394.821ZM326.707 398.53C326.39 398.902 325.926 399.088 325.313 399.088C324.807 399.088 324.42 398.941 324.153 398.648C323.89 398.353 323.756 397.916 323.753 397.339V394.245H324.566V397.317C324.566 398.038 324.859 398.398 325.445 398.398C326.066 398.398 326.479 398.167 326.685 397.704V394.245H327.498V399H326.724L326.707 398.53ZM331.035 394.975C330.912 394.954 330.779 394.944 330.635 394.944C330.102 394.944 329.74 395.171 329.55 395.625V399H328.737V394.245H329.528L329.541 394.794C329.808 394.37 330.186 394.157 330.675 394.157C330.833 394.157 330.953 394.178 331.035 394.219V394.975Z" fill="#646464"/>
<path d="M421.174 396.246H418.489V399.072H417.646V392.674H421.61V393.368H418.489V395.556H421.174V396.246ZM424.677 395.047C424.554 395.026 424.421 395.016 424.277 395.016C423.744 395.016 423.382 395.243 423.192 395.697V399.072H422.379V394.317H423.17L423.183 394.866C423.449 394.442 423.827 394.229 424.317 394.229C424.475 394.229 424.595 394.25 424.677 394.291V395.047ZM426.312 399.072H425.499V394.317H426.312V399.072ZM425.433 393.056C425.433 392.924 425.472 392.813 425.551 392.722C425.633 392.631 425.754 392.586 425.912 392.586C426.07 392.586 426.19 392.631 426.272 392.722C426.354 392.813 426.395 392.924 426.395 393.056C426.395 393.188 426.354 393.298 426.272 393.385C426.19 393.473 426.07 393.517 425.912 393.517C425.754 393.517 425.633 393.473 425.551 393.385C425.472 393.298 425.433 393.188 425.433 393.056Z" fill="#646464"/>
<path d="M518.363 396.22C517.64 396.012 517.112 395.757 516.781 395.455C516.453 395.151 516.289 394.776 516.289 394.33C516.289 393.826 516.49 393.41 516.891 393.082C517.296 392.751 517.82 392.586 518.465 392.586C518.904 392.586 519.295 392.671 519.638 392.841C519.984 393.01 520.25 393.245 520.438 393.544C520.628 393.842 520.723 394.169 520.723 394.524H519.875C519.875 394.137 519.752 393.834 519.506 393.614C519.26 393.391 518.913 393.28 518.465 393.28C518.049 393.28 517.723 393.372 517.489 393.557C517.257 393.738 517.142 393.992 517.142 394.317C517.142 394.578 517.252 394.799 517.471 394.981C517.694 395.159 518.07 395.323 518.601 395.473C519.134 395.622 519.55 395.788 519.849 395.969C520.151 396.148 520.373 396.358 520.517 396.598C520.663 396.838 520.737 397.121 520.737 397.446C520.737 397.965 520.534 398.381 520.13 398.694C519.726 399.005 519.185 399.16 518.508 399.16C518.069 399.16 517.659 399.076 517.278 398.909C516.897 398.739 516.603 398.508 516.395 398.215C516.19 397.922 516.087 397.59 516.087 397.217H516.935C516.935 397.604 517.077 397.91 517.362 398.136C517.649 398.359 518.031 398.47 518.508 398.47C518.954 398.47 519.295 398.379 519.532 398.197C519.77 398.016 519.888 397.768 519.888 397.455C519.888 397.141 519.778 396.9 519.559 396.73C519.339 396.557 518.941 396.387 518.363 396.22ZM524.63 399.072C524.583 398.978 524.545 398.811 524.516 398.571C524.138 398.964 523.687 399.16 523.162 399.16C522.694 399.16 522.308 399.028 522.007 398.764C521.708 398.498 521.558 398.161 521.558 397.754C521.558 397.258 521.746 396.875 522.121 396.602C522.499 396.327 523.029 396.189 523.712 396.189H524.503V395.816C524.503 395.531 524.418 395.306 524.248 395.139C524.078 394.969 523.827 394.884 523.496 394.884C523.206 394.884 522.963 394.957 522.767 395.104C522.57 395.25 522.472 395.427 522.472 395.635H521.655C521.655 395.398 521.738 395.17 521.905 394.95C522.075 394.727 522.304 394.551 522.591 394.423C522.881 394.294 523.199 394.229 523.545 394.229C524.092 394.229 524.522 394.367 524.832 394.642C525.143 394.915 525.304 395.291 525.316 395.772V397.96C525.316 398.397 525.371 398.744 525.483 399.002V399.072H524.63ZM523.281 398.452C523.536 398.452 523.778 398.386 524.006 398.255C524.235 398.123 524.4 397.951 524.503 397.74V396.765H523.865C522.869 396.765 522.371 397.056 522.371 397.639C522.371 397.894 522.456 398.093 522.626 398.237C522.796 398.381 523.014 398.452 523.281 398.452ZM527.693 393.166V394.317H528.581V394.945H527.693V397.894C527.693 398.085 527.733 398.228 527.812 398.325C527.891 398.419 528.026 398.466 528.216 398.466C528.31 398.466 528.439 398.448 528.603 398.413V399.072C528.389 399.131 528.181 399.16 527.979 399.16C527.615 399.16 527.341 399.05 527.157 398.83C526.972 398.611 526.88 398.299 526.88 397.894V394.945H526.014V394.317H526.88V393.166H527.693Z" fill="#646464"/>
<path d="M618.284 396.148C617.561 395.94 617.033 395.685 616.702 395.383C616.374 395.079 616.21 394.704 616.21 394.258C616.21 393.754 616.411 393.338 616.812 393.01C617.216 392.679 617.741 392.514 618.385 392.514C618.825 392.514 619.216 392.599 619.559 392.769C619.904 392.938 620.171 393.173 620.359 393.472C620.549 393.771 620.644 394.097 620.644 394.452H619.796C619.796 394.065 619.673 393.762 619.427 393.542C619.181 393.319 618.834 393.208 618.385 393.208C617.969 393.208 617.644 393.3 617.41 393.485C617.178 393.667 617.063 393.92 617.063 394.245C617.063 394.506 617.173 394.727 617.392 394.909C617.615 395.087 617.991 395.251 618.522 395.401C619.055 395.55 619.471 395.716 619.77 395.897C620.071 396.076 620.294 396.286 620.438 396.526C620.584 396.766 620.657 397.049 620.657 397.374C620.657 397.893 620.455 398.309 620.051 398.622C619.647 398.933 619.106 399.088 618.429 399.088C617.99 399.088 617.58 399.004 617.199 398.837C616.818 398.667 616.524 398.436 616.316 398.143C616.111 397.85 616.008 397.518 616.008 397.146H616.856C616.856 397.532 616.998 397.838 617.282 398.064C617.57 398.287 617.952 398.398 618.429 398.398C618.875 398.398 619.216 398.307 619.453 398.125C619.691 397.944 619.809 397.696 619.809 397.383C619.809 397.069 619.699 396.828 619.48 396.658C619.26 396.485 618.862 396.315 618.284 396.148ZM624.551 398.53C624.235 398.902 623.77 399.088 623.158 399.088C622.651 399.088 622.264 398.941 621.998 398.648C621.734 398.353 621.601 397.916 621.598 397.339V394.245H622.411V397.317C622.411 398.038 622.704 398.398 623.29 398.398C623.911 398.398 624.324 398.167 624.529 397.704V394.245H625.342V399H624.569L624.551 398.53ZM627.35 394.245L627.377 394.843C627.74 394.386 628.215 394.157 628.8 394.157C629.805 394.157 630.312 394.724 630.321 395.858V399H629.508V395.854C629.505 395.511 629.426 395.257 629.271 395.093C629.118 394.929 628.88 394.847 628.554 394.847C628.291 394.847 628.059 394.917 627.86 395.058C627.661 395.199 627.506 395.383 627.394 395.612V399H626.581V394.245H627.35Z" fill="#646464"/>
<path d="M10.5865 382.644C10.5865 383.702 10.4059 384.488 10.0445 385.003C9.68321 385.517 9.11844 385.774 8.35021 385.774C7.59174 385.774 7.03022 385.524 6.66564 385.022C6.30105 384.518 6.11225 383.766 6.09923 382.766V381.56C6.09923 380.516 6.27989 379.739 6.64122 379.231C7.00255 378.724 7.56896 378.47 8.34044 378.47C9.10541 378.47 9.66857 378.715 10.0299 379.207C10.3912 379.695 10.5768 380.45 10.5865 381.473V382.644ZM9.68321 381.409C9.68321 380.644 9.57579 380.087 9.36095 379.739C9.1461 379.388 8.80594 379.212 8.34044 379.212C7.8782 379.212 7.54129 379.386 7.3297 379.734C7.11811 380.083 7.00906 380.618 7.00255 381.341V382.786C7.00255 383.554 7.11323 384.122 7.33458 384.49C7.55919 384.855 7.89773 385.037 8.35021 385.037C8.79617 385.037 9.12657 384.864 9.34142 384.519C9.55952 384.174 9.67345 383.631 9.68321 382.889V381.409Z" fill="#646464"/>
<path d="M9.09728 338.357H8.18907V332.336L6.36778 333.005V332.185L8.95568 331.213H9.09728V338.357ZM10.5865 345.325C10.5865 346.383 10.4059 347.169 10.0445 347.683C9.68321 348.197 9.11844 348.454 8.35021 348.454C7.59174 348.454 7.03022 348.204 6.66564 347.703C6.30105 347.198 6.11225 346.446 6.09923 345.447V344.241C6.09923 343.196 6.27989 342.419 6.64122 341.911C7.00255 341.404 7.56896 341.15 8.34044 341.15C9.10541 341.15 9.66857 341.396 10.0299 341.887C10.3912 342.375 10.5768 343.131 10.5865 344.153V345.325ZM9.68321 344.089C9.68321 343.324 9.57579 342.768 9.36095 342.419C9.1461 342.068 8.80594 341.892 8.34044 341.892C7.8782 341.892 7.54129 342.066 7.3297 342.414C7.11811 342.763 7.00906 343.298 7.00255 344.021V345.466C7.00255 346.234 7.11323 346.802 7.33458 347.17C7.55919 347.535 7.89773 347.717 8.35021 347.717C8.79617 347.717 9.12657 347.545 9.34142 347.2C9.55952 346.855 9.67345 346.311 9.68321 345.569V344.089Z" fill="#646464"/>
<path d="M10.7867 291.035H6.12853V290.386L8.58946 287.651C8.95405 287.238 9.2047 286.903 9.34142 286.645C9.48139 286.385 9.55138 286.116 9.55138 285.84C9.55138 285.469 9.43907 285.164 9.21446 284.927C8.98985 284.689 8.69038 284.57 8.31603 284.57C7.86681 284.57 7.51687 284.699 7.26622 284.956C7.01883 285.21 6.89513 285.565 6.89513 286.02H5.99181C5.99181 285.366 6.20177 284.837 6.62169 284.433C7.04487 284.03 7.60965 283.828 8.31603 283.828C8.97683 283.828 9.49929 284.002 9.88341 284.35C10.2675 284.696 10.4596 285.156 10.4596 285.732C10.4596 286.432 10.0136 287.266 9.12169 288.232L7.21739 290.298H10.7867V291.035ZM10.5865 298.003C10.5865 299.061 10.4059 299.847 10.0445 300.361C9.68321 300.876 9.11844 301.133 8.35021 301.133C7.59174 301.133 7.03022 300.882 6.66564 300.381C6.30105 299.876 6.11225 299.124 6.09923 298.125V296.919C6.09923 295.874 6.27989 295.098 6.64122 294.59C7.00255 294.082 7.56896 293.828 8.34044 293.828C9.10541 293.828 9.66857 294.074 10.0299 294.565C10.3912 295.054 10.5768 295.809 10.5865 296.831V298.003ZM9.68321 296.767C9.68321 296.002 9.57579 295.446 9.36095 295.098C9.1461 294.746 8.80594 294.57 8.34044 294.57C7.8782 294.57 7.54129 294.744 7.3297 295.093C7.11811 295.441 7.00906 295.976 7.00255 296.699V298.144C7.00255 298.913 7.11323 299.481 7.33458 299.849C7.55919 300.213 7.89773 300.395 8.35021 300.395C8.79617 300.395 9.12657 300.223 9.34142 299.878C9.55952 299.533 9.67345 298.989 9.68321 298.247V296.767Z" fill="#646464"/>
<path d="M7.442 239.72H8.12071C8.54715 239.714 8.88243 239.601 9.12657 239.383C9.37071 239.165 9.49278 238.871 9.49278 238.499C9.49278 237.666 9.07775 237.249 8.24767 237.249C7.85704 237.249 7.54454 237.362 7.31017 237.586C7.07905 237.808 6.96349 238.102 6.96349 238.47H6.06017C6.06017 237.907 6.26525 237.44 6.6754 237.069C7.08881 236.694 7.6129 236.507 8.24767 236.507C8.91824 236.507 9.44396 236.685 9.82482 237.039C10.2057 237.394 10.3961 237.887 10.3961 238.519C10.3961 238.828 10.2952 239.128 10.0934 239.417C9.8948 239.707 9.62299 239.924 9.27794 240.067C9.66857 240.191 9.96967 240.396 10.1813 240.682C10.3961 240.969 10.5035 241.318 10.5035 241.732C10.5035 242.37 10.2952 242.876 9.87853 243.25C9.46186 243.625 8.91987 243.812 8.25255 243.812C7.58523 243.812 7.04161 243.631 6.62169 243.27C6.20502 242.909 5.99669 242.432 5.99669 241.839H6.90489C6.90489 242.214 7.02696 242.513 7.2711 242.738C7.51525 242.962 7.84239 243.075 8.25255 243.075C8.68875 243.075 9.02241 242.961 9.25353 242.733C9.48465 242.505 9.60021 242.178 9.60021 241.751C9.60021 241.338 9.47325 241.021 9.21935 240.799C8.96544 240.578 8.59923 240.464 8.12071 240.457H7.442V239.72ZM10.5865 250.682C10.5865 251.74 10.4059 252.526 10.0445 253.04C9.68321 253.555 9.11844 253.812 8.35021 253.812C7.59174 253.812 7.03022 253.561 6.66564 253.06C6.30105 252.555 6.11225 251.803 6.09923 250.804V249.598C6.09923 248.553 6.27989 247.777 6.64122 247.269C7.00255 246.761 7.56896 246.507 8.34044 246.507C9.10541 246.507 9.66857 246.753 10.0299 247.245C10.3912 247.733 10.5768 248.488 10.5865 249.51V250.682ZM9.68321 249.447C9.68321 248.682 9.57579 248.125 9.36095 247.777C9.1461 247.425 8.80594 247.249 8.34044 247.249C7.8782 247.249 7.54129 247.424 7.3297 247.772C7.11811 248.12 7.00906 248.656 7.00255 249.378V250.824C7.00255 251.592 7.11323 252.16 7.33458 252.528C7.55919 252.892 7.89773 253.075 8.35021 253.075C8.79617 253.075 9.12657 252.902 9.34142 252.557C9.55952 252.212 9.67345 251.668 9.68321 250.926V249.447Z" fill="#646464"/>
<path d="M9.942 194.005H10.9283V194.742H9.942V196.393H9.0338V194.742H5.7965V194.21L8.98009 189.283H9.942V194.005ZM6.82189 194.005H9.0338V190.519L8.92638 190.714L6.82189 194.005ZM10.5865 203.36C10.5865 204.418 10.4059 205.204 10.0445 205.719C9.68321 206.233 9.11844 206.49 8.35021 206.49C7.59174 206.49 7.03022 206.24 6.66564 205.738C6.30105 205.234 6.11225 204.482 6.09923 203.482V202.276C6.09923 201.231 6.27989 200.455 6.64122 199.947C7.00255 199.439 7.56896 199.186 8.34044 199.186C9.10541 199.186 9.66857 199.431 10.0299 199.923C10.3912 200.411 10.5768 201.166 10.5865 202.188V203.36ZM9.68321 202.125C9.68321 201.36 9.57579 200.803 9.36095 200.455C9.1461 200.104 8.80594 199.928 8.34044 199.928C7.8782 199.928 7.54129 200.102 7.3297 200.45C7.11811 200.799 7.00906 201.334 7.00255 202.057V203.502C7.00255 204.27 7.11323 204.838 7.33458 205.206C7.55919 205.571 7.89773 205.753 8.35021 205.753C8.79617 205.753 9.12657 205.58 9.34142 205.235C9.55952 204.89 9.67345 204.347 9.68321 203.604V202.125Z" fill="#646464"/>
<path d="M6.54357 145.508L6.90489 141.963H10.5475V142.798H7.6715L7.45665 144.737C7.80496 144.532 8.20047 144.429 8.64318 144.429C9.29096 144.429 9.80528 144.644 10.1861 145.074C10.567 145.5 10.7574 146.078 10.7574 146.807C10.7574 147.54 10.5589 148.117 10.1617 148.541C9.76785 148.96 9.21609 149.17 8.50646 149.17C7.8782 149.17 7.36551 148.996 6.96837 148.648C6.57124 148.3 6.345 147.818 6.28966 147.203H7.14415C7.19949 147.61 7.34435 147.917 7.57872 148.125C7.8131 148.331 8.12234 148.433 8.50646 148.433C8.92638 148.433 9.25515 148.29 9.49278 148.003C9.73367 147.717 9.85411 147.321 9.85411 146.817C9.85411 146.342 9.7239 145.961 9.46349 145.674C9.20633 145.385 8.8629 145.24 8.43321 145.24C8.03933 145.24 7.73009 145.326 7.50548 145.499L7.26622 145.694L6.54357 145.508ZM10.5865 156.041C10.5865 157.098 10.4059 157.885 10.0445 158.399C9.68321 158.913 9.11844 159.17 8.35021 159.17C7.59174 159.17 7.03022 158.92 6.66564 158.418C6.30105 157.914 6.11225 157.162 6.09923 156.163V154.957C6.09923 153.912 6.27989 153.135 6.64122 152.627C7.00255 152.12 7.56896 151.866 8.34044 151.866C9.10541 151.866 9.66857 152.111 10.0299 152.603C10.3912 153.091 10.5768 153.847 10.5865 154.869V156.041ZM9.68321 154.805C9.68321 154.04 9.57579 153.484 9.36095 153.135C9.1461 152.784 8.80594 152.608 8.34044 152.608C7.8782 152.608 7.54129 152.782 7.3297 153.13C7.11811 153.479 7.00906 154.014 7.00255 154.737V156.182C7.00255 156.95 7.11323 157.518 7.33458 157.886C7.55919 158.251 7.89773 158.433 8.35021 158.433C8.79617 158.433 9.12657 158.261 9.34142 157.916C9.55952 157.57 9.67345 157.027 9.68321 156.285V154.805Z" fill="#646464"/>
<path d="M9.67345 94.6358V95.4024H9.50743C8.80431 95.4154 8.24441 95.6238 7.82775 96.0274C7.41108 96.4311 7.17019 96.9991 7.10509 97.7315C7.47944 97.3018 7.99051 97.087 8.63829 97.087C9.25678 97.087 9.74995 97.3051 10.1178 97.7413C10.4889 98.1775 10.6744 98.7406 10.6744 99.4307C10.6744 100.163 10.4742 100.749 10.0738 101.189C9.6767 101.628 9.14285 101.848 8.47228 101.848C7.79194 101.848 7.24018 101.587 6.817 101.066C6.39383 100.542 6.18224 99.8686 6.18224 99.045V98.6983C6.18224 97.3897 6.46056 96.3904 7.0172 95.7003C7.57709 95.0069 8.4088 94.6521 9.51232 94.6358H9.67345ZM8.48693 97.8389C8.17768 97.8389 7.89285 97.9317 7.63243 98.1172C7.37202 98.3028 7.19135 98.5355 7.09044 98.8155V99.1475C7.09044 99.7335 7.22228 100.205 7.48595 100.564C7.74962 100.922 8.0784 101.101 8.47228 101.101C8.87918 101.101 9.19819 100.951 9.42931 100.651C9.66368 100.352 9.78087 99.9597 9.78087 99.4747C9.78087 98.9864 9.66206 98.5925 9.42443 98.293C9.19005 97.9903 8.87755 97.8389 8.48693 97.8389ZM10.5865 108.718C10.5865 109.776 10.4059 110.562 10.0445 111.076C9.68321 111.591 9.11844 111.848 8.35021 111.848C7.59174 111.848 7.03022 111.597 6.66564 111.096C6.30105 110.591 6.11225 109.839 6.09923 108.84V107.634C6.09923 106.589 6.27989 105.813 6.64122 105.305C7.00255 104.797 7.56896 104.543 8.34044 104.543C9.10541 104.543 9.66857 104.789 10.0299 105.28C10.3912 105.769 10.5768 106.524 10.5865 107.546V108.718ZM9.68321 107.482C9.68321 106.718 9.57579 106.161 9.36095 105.813C9.1461 105.461 8.80594 105.285 8.34044 105.285C7.8782 105.285 7.54129 105.459 7.3297 105.808C7.11811 106.156 7.00906 106.691 7.00255 107.414V108.859C7.00255 109.628 7.11323 110.196 7.33458 110.564C7.55919 110.928 7.89773 111.11 8.35021 111.11C8.79617 111.11 9.12657 110.938 9.34142 110.593C9.55952 110.248 9.67345 109.704 9.68321 108.962V107.482Z" fill="#646464"/>
<path d="M10.7184 47.8268L7.77403 54.4283H6.82677L9.76134 48.0611H5.91368V47.3189H10.7184V47.8268ZM10.5865 61.3961C10.5865 62.454 10.4059 63.2402 10.0445 63.7545C9.68321 64.2688 9.11844 64.526 8.35021 64.526C7.59174 64.526 7.03022 64.2753 6.66564 63.774C6.30105 63.2695 6.11225 62.5175 6.09923 61.5182V60.3121C6.09923 59.2672 6.27989 58.4908 6.64122 57.983C7.00255 57.4752 7.56896 57.2213 8.34044 57.2213C9.10541 57.2213 9.66857 57.4671 10.0299 57.9586C10.3912 58.4469 10.5768 59.2021 10.5865 60.2242V61.3961ZM9.68321 60.1607C9.68321 59.3958 9.57579 58.8391 9.36095 58.4908C9.1461 58.1393 8.80594 57.9635 8.34044 57.9635C7.8782 57.9635 7.54129 58.1376 7.3297 58.4859C7.11811 58.8342 7.00906 59.3697 7.00255 60.0924V61.5377C7.00255 62.3059 7.11323 62.874 7.33458 63.2418C7.55919 63.6064 7.89773 63.7887 8.35021 63.7887C8.79617 63.7887 9.12657 63.6161 9.34142 63.2711C9.55952 62.926 9.67345 62.3824 9.68321 61.6402V60.1607Z" fill="#646464"/>
<path d="M10.4401 2.74609C10.4401 3.10091 10.3456 3.41667 10.1568 3.69336C9.9713 3.97005 9.71902 4.18652 9.40001 4.34277C9.7711 4.50228 10.0641 4.73503 10.2789 5.04102C10.497 5.34701 10.6061 5.69368 10.6061 6.08105C10.6061 6.69629 10.3977 7.1862 9.98107 7.55078C9.56765 7.91536 9.02241 8.09766 8.34532 8.09766C7.66173 8.09766 7.11323 7.91536 6.69982 7.55078C6.28966 7.18294 6.08458 6.69303 6.08458 6.08105C6.08458 5.69694 6.18875 5.35026 6.39708 5.04102C6.60867 4.73177 6.90001 4.4974 7.2711 4.33789C6.95535 4.18164 6.70633 3.96517 6.52403 3.68848C6.34174 3.41178 6.2506 3.09766 6.2506 2.74609C6.2506 2.14714 6.44265 1.67188 6.82677 1.32031C7.21088 0.96875 7.71707 0.792969 8.34532 0.792969C8.97032 0.792969 9.47488 0.96875 9.859 1.32031C10.2464 1.67188 10.4401 2.14714 10.4401 2.74609ZM9.70275 6.06152C9.70275 5.66439 9.57579 5.34049 9.32189 5.08984C9.07124 4.83919 8.74246 4.71387 8.33556 4.71387C7.92866 4.71387 7.60151 4.83757 7.35411 5.08496C7.10997 5.33236 6.9879 5.65788 6.9879 6.06152C6.9879 6.46517 7.10672 6.78255 7.34435 7.01367C7.58523 7.24479 7.91889 7.36035 8.34532 7.36035C8.7685 7.36035 9.10053 7.24479 9.34142 7.01367C9.5823 6.7793 9.70275 6.46191 9.70275 6.06152ZM8.34532 1.53516C7.99051 1.53516 7.70242 1.64583 7.48107 1.86719C7.26297 2.08529 7.15392 2.38314 7.15392 2.76074C7.15392 3.12207 7.26134 3.41504 7.47618 3.63965C7.69428 3.861 7.984 3.97168 8.34532 3.97168C8.70665 3.97168 8.99474 3.861 9.20958 3.63965C9.42768 3.41504 9.53673 3.12207 9.53673 2.76074C9.53673 2.39941 9.42443 2.10482 9.19982 1.87695C8.97521 1.64909 8.69038 1.53516 8.34532 1.53516ZM10.5865 14.9678C10.5865 16.0257 10.4059 16.8118 10.0445 17.3262C9.68321 17.8405 9.11844 18.0977 8.35021 18.0977C7.59174 18.0977 7.03022 17.847 6.66564 17.3457C6.30105 16.8411 6.11225 16.0892 6.09923 15.0898V13.8838C6.09923 12.8389 6.27989 12.0625 6.64122 11.5547C7.00255 11.0469 7.56896 10.793 8.34044 10.793C9.10541 10.793 9.66857 11.0387 10.0299 11.5303C10.3912 12.0186 10.5768 12.7738 10.5865 13.7959V14.9678ZM9.68321 13.7324C9.68321 12.9674 9.57579 12.4108 9.36095 12.0625C9.1461 11.7109 8.80594 11.5352 8.34044 11.5352C7.8782 11.5352 7.54129 11.7093 7.3297 12.0576C7.11811 12.4059 7.00906 12.9414 7.00255 13.6641V15.1094C7.00255 15.8776 7.11323 16.4456 7.33458 16.8135C7.55919 17.1781 7.89773 17.3604 8.35021 17.3604C8.79617 17.3604 9.12657 17.1878 9.34142 16.8428C9.55952 16.4977 9.67345 15.9541 9.68321 15.2119V13.7324Z" fill="#646464"/>
<path d="M20.4473 4.46609V382.142" stroke="#E1E1E1"/>
<path d="M120.824 4.46609V382.142" stroke="#E1E1E1"/>
<path d="M221.201 4.46609V382.142" stroke="#E1E1E1"/>
<path d="M321.576 4.46609V382.142" stroke="#E1E1E1"/>
<path d="M421.953 4.46609V382.142" stroke="#E1E1E1"/>
<path d="M522.33 4.46609V382.142" stroke="#E1E1E1"/>
<path d="M622.707 4.46609V382.142" stroke="#E1E1E1"/>
<path d="M20.4473 382.142H622.706" stroke="#E1E1E1"/>
<path d="M20.4473 334.822H622.706" stroke="#E1E1E1"/>
<path d="M20.4473 287.499H622.706" stroke="#E1E1E1"/>
<path d="M20.4473 240.177H622.706" stroke="#E1E1E1"/>
<path d="M20.4473 192.857H622.706" stroke="#E1E1E1"/>
<path d="M20.4473 145.535H622.706" stroke="#E1E1E1"/>
<path d="M20.4473 98.2152H622.706" stroke="#E1E1E1"/>
<path d="M20.4473 50.8925H622.706" stroke="#E1E1E1"/>
<path d="M20.4473 4.46609H622.706" stroke="#E1E1E1"/>
<rect x="20" y="383" width="98" height="14" rx="7" transform="rotate(-90 20 383)" fill="url(#paint0_linear)"/>
<rect x="121" y="383" width="233" height="14" rx="7" transform="rotate(-90 121 383)" fill="url(#paint1_linear)"/>
<rect x="221" y="383" width="285" height="14" rx="7" transform="rotate(-90 221 383)" fill="url(#paint2_linear)"/>
<rect x="322" y="383" width="250" height="14" rx="7" transform="rotate(-90 322 383)" fill="url(#paint3_linear)"/>
<defs>
<linearGradient id="paint0_linear" x1="20" y1="390" x2="118" y2="390" gradientUnits="userSpaceOnUse">
<stop stop-color="#B7FFD5"/>
<stop offset="1" stop-color="#2A9D8F"/>
</linearGradient>
<linearGradient id="paint1_linear" x1="121" y1="390" x2="354" y2="390" gradientUnits="userSpaceOnUse">
<stop stop-color="#B7FFD5"/>
<stop offset="1" stop-color="#2A9D8F"/>
</linearGradient>
<linearGradient id="paint2_linear" x1="221" y1="390" x2="506" y2="390" gradientUnits="userSpaceOnUse">
<stop stop-color="#B7FFD5"/>
<stop offset="1" stop-color="#2A9D8F"/>
</linearGradient>
<linearGradient id="paint3_linear" x1="322" y1="390" x2="572" y2="390" gradientUnits="userSpaceOnUse">
<stop stop-color="#B7FFD5"/>
<stop offset="1" stop-color="#2A9D8F"/>
</linearGradient>
</defs>
</svg>
