<svg width="1076" height="217" viewBox="0 0 1076 217" fill="none" xmlns="http://www.w3.org/2000/svg">
<mask id="path-1-inside-1" fill="white">
<path fill-rule="evenodd" clip-rule="evenodd" d="M401.541 18.0003C400.549 18.0003 399.593 17.6319 398.857 16.9665L381.684 1.42839C380.16 0.0499111 377.84 0.0499134 376.316 1.42839L359.143 16.9665C358.407 17.6319 357.451 18.0003 356.459 18.0003H4C1.79086 18.0003 0 19.7912 0 22.0003V213C0 215.209 1.79087 217 4.00001 217H1072C1074.21 217 1076 215.209 1076 213V22.0003C1076 19.7912 1074.21 18.0003 1072 18.0003H401.541Z"/>
</mask>
<path d="M359.143 16.9665L358.472 16.2249L359.143 16.9665ZM398.857 16.9665L399.528 16.2249L398.857 16.9665ZM381.684 1.42839L382.355 0.686851L381.684 1.42839ZM376.316 1.42839L375.645 0.686854L376.316 1.42839ZM381.013 2.16992L398.186 17.708L399.528 16.2249L382.355 0.686851L381.013 2.16992ZM359.814 17.708L376.987 2.16993L375.645 0.686854L358.472 16.2249L359.814 17.708ZM4 19.0003H356.459V17.0003H4V19.0003ZM1 213V22.0003H-1V213H1ZM1072 216H4.00001V218H1072V216ZM1075 22.0003V213H1077V22.0003H1075ZM401.541 19.0003H1072V17.0003H401.541V19.0003ZM1077 22.0003C1077 19.2389 1074.76 17.0003 1072 17.0003V19.0003C1073.66 19.0003 1075 20.3435 1075 22.0003H1077ZM1072 218C1074.76 218 1077 215.762 1077 213H1075C1075 214.657 1073.66 216 1072 216V218ZM-1 213C-1 215.762 1.23859 218 4.00001 218V216C2.34315 216 1 214.657 1 213H-1ZM4 17.0003C1.23858 17.0003 -1 19.2389 -1 22.0003H1C1 20.3435 2.34314 19.0003 4 19.0003V17.0003ZM358.472 16.2249C357.92 16.724 357.203 17.0003 356.459 17.0003V19.0003C357.699 19.0003 358.894 18.5398 359.814 17.708L358.472 16.2249ZM398.186 17.708C399.106 18.5398 400.301 19.0003 401.541 19.0003V17.0003C400.797 17.0003 400.08 16.724 399.528 16.2249L398.186 17.708ZM382.355 0.686851C380.45 -1.03624 377.55 -1.03624 375.645 0.686854L376.987 2.16993C378.13 1.13607 379.87 1.13607 381.013 2.16992L382.355 0.686851Z" fill="#2A9D8F" mask="url(#path-1-inside-1)"/>
</svg>
